<mxfile host="app.diagrams.net" modified="2023-05-11T06:44:15.690Z" agent="Mozilla/5.0 (Macintosh; Intel Mac OS X 10_15_7) AppleWebKit/537.36 (KHTML, like Gecko) Chrome/112.0.0.0 Safari/537.36 Edg/112.0.1722.68" version="21.2.9" etag="Kl9Aqf3OQZpiAnXJcUKp" type="github">
  <diagram name="Page-1" id="3ai1hJI3Zs3QyAO3hVnc">
    <mxGraphModel>
      <root>
        <mxCell id="0" />
        <mxCell id="1" parent="0" />
      </root>
    </mxGraphModel>
  </diagram>
</mxfile>
